<?xml version="1.0" encoding="UTF-8"?>
<svg version="1.1" viewBox="0 0 139 30" xmlns="http://www.w3.org/2000/svg">
    <desc>Created with Sketch.</desc>
    <defs>
        <linearGradient id="a" x1="17.264%" x2="72.488%" y1="78.472%" y2="30.4%">
            <stop stop-color="#0397A7" offset=".00044188"/>
            <stop stop-color="#00ECCD" offset=".9971"/>
        </linearGradient>
    </defs>
    <g fill="none" fill-rule="evenodd">
        <g fill-rule="nonzero">
            <path d="m31.403 11.198l-8.3438-10.185c-0.60718-0.73717-1.5473-1.0864-2.4875-0.95056l-13.084 2.0757c-0.94014 0.15519-1.7236 0.77596-2.0761 1.6683l-4.7399 12.26c-0.33297 0.89236-0.17628 1.8817 0.41131 2.6189l8.3438 10.185c0.60718 0.73717 1.5473 1.0864 2.4875 0.95056l13.084-2.0757c0.94014-0.15519 1.7236-0.77596 2.0761-1.6683l4.7399-12.26c0.35255-0.89236 0.19586-1.8817-0.41131-2.6189z" fill="url(#a)"/>
            <polygon points="19.809 9.0152 16.875 14.265 13.98 8.0467 10.365 8.9959 5.8963 20.618 9.8797 20.618 12.581 13.761 15.223 20.289 17.264 20.289 21.189 13.296 21.189 22.245 24.9 20.986 24.9 9.9256" fill="#fff"/>
            <g transform="translate(33.2 9)" fill="#fff">
                <path d="m43.401 4.3819c1.0098-0.95675 2.2332-1.416 3.709-1.416 1.4758 0 2.7187 0.45924 3.709 1.416 1.0098 0.93762 1.4953 2.1431 1.4953 3.6165s-0.50489 2.6789-1.4953 3.5974-2.2138 1.3777-3.709 1.3777c-1.4758 0-2.7187-0.45924-3.709-1.3777-0.99037-0.93762-1.4758-2.1431-1.4758-3.5974 0-1.4734 0.50489-2.6789 1.4758-3.6165zm3.7284 5.7979c1.0875 0 1.9807-0.86108 1.9807-2.1814 0-1.3395-0.87385-2.2197-1.9807-2.2197-1.0875 0-1.9807 0.89935-1.9807 2.2197 0 1.3203 0.87385 2.1814 1.9807 2.1814zm-9.4959-7.1948c2.2332 0 3.2041 1.1864 3.2041 3.2721v6.4868h-3.6119v-5.7405c0-0.59319-0.21361-0.93762-0.67966-0.93762-0.42722 0-1.2622 0.15308-1.7865 0.51665v6.1806h-3.5731v-9.5866h2.9517l0.19419 0.72713c0.58257-0.3827 1.9613-0.88021 3.0488-0.91848h0.25245zm-23.439-1.8944l5.1849 0.89935v11.022l-3.7867 1.2629v-8.8978l-3.9809 7.0417h-2.0778l-2.6992-6.5633-2.7381 6.8886h-4.0586l4.544-11.672 3.6702-0.97589 2.9517 6.2571 2.9905-5.2621zm7.1656 2.3727c2.6021-0.44011 8.5055-1.8178 8.5249 3.4826v5.817h-2.7381l-0.21361-0.45924s-0.95153 0.708-3.0099 0.708c-2.2526 0-3.4372-1.5308-3.4372-3.0042 0-2.4301 2.1555-3.0042 4.6023-3.0042h1.7089c0-0.99502-0.60199-1.3586-1.8836-1.3395-1.806 0-3.243 0.40184-3.5537 0.49751v-2.698zm5.4567 5.664v-0.095675l-1.6118-0.019135c-1.2622 0-1.8642 0.19135-1.8642 0.82281 0 0.63146 0.52431 0.88021 1.4176 0.88021 1.3399 0 2.0584-0.47838 2.0584-1.5882zm69.365-4.7455c1.0098-0.95675 2.2332-1.416 3.709-1.416 1.4758 0 2.7187 0.45924 3.709 1.416 1.0098 0.93762 1.4953 2.1431 1.4953 3.6165s-0.50489 2.6789-1.4953 3.5974c-0.99037 0.91848-2.2138 1.3777-3.709 1.3777-1.4758 0-2.7187-0.45924-3.709-1.3777-0.99037-0.93762-1.4758-2.1431-1.4758-3.5974 0-1.4734 0.48547-2.6789 1.4758-3.6165zm3.709 5.7979c1.0875 0 1.9807-0.86108 1.9807-2.1814 0-1.3395-0.87385-2.2197-1.9807-2.2197-1.0875 0-1.9807 0.89935-1.9807 2.2197 0.019419 1.3203 0.89327 2.1814 1.9807 2.1814zm-9.4765-7.1948c2.2332 0 3.1847 1.1864 3.1847 3.2721v6.4868h-3.5925v-5.7405c0-0.59319-0.21361-0.93762-0.67966-0.93762-0.42722 0-1.2622 0.15308-1.7865 0.51665v6.1806h-3.5731v-9.5866h2.9517l0.19419 0.72713c0.58257-0.3827 1.9613-0.88021 3.0488-0.91848h0.25245zm-23.439-1.8944l5.1849 0.89935v11.022l-3.7867 1.2629v-8.8978l-4.0003 7.0417h-2.0584l-2.6992-6.5633-2.7381 6.8886h-4.0586l4.544-11.672 3.6702-0.97589 2.9517 6.2571 2.9905-5.2621zm7.1462 2.3727c2.6216-0.44011 8.5249-1.8178 8.5249 3.4826v5.817h-2.7381l-0.21361-0.45924s-0.95153 0.708-3.0099 0.708c-2.2526 0-3.4372-1.5308-3.4372-3.0042 0-2.4301 2.1555-3.0042 4.6023-3.0042h1.7089c0-0.99502-0.60199-1.3586-1.8836-1.3395-1.806 0-3.243 0.40184-3.5537 0.49751v-2.698zm5.4567 5.664v-0.095675l-1.6118-0.019135c-1.2622 0-1.8642 0.19135-1.8642 0.82281 0 0.63146 0.52431 0.88021 1.4176 0.88021 1.3399 0 2.0584-0.47838 2.0584-1.5882z"/>
            </g>
        </g>
    </g>
</svg>
